{
    "asset": {
        "version": "2.0",
        "generator": "Open Asset Import Library (assimp v5.4.0)"
    },
    "extensionsUsed": [
        "KHR_materials_volume",
        "FB_ngon_encoding"
    ],
    "accessors": [
        {
            "bufferView": 0,
            "byteOffset": 0,
            "componentType": 5126,
            "count": 26461,
            "type": "VEC3",
            "max": [
                0.2621154189109802,
                0.10791613906621933,
                0.5039797425270081
            ],
            "min": [
                -0.26902058720588684,
                -0.08348744362592697,
                -0.49602025747299194
            ]
        },
        {
            "bufferView": 1,
            "byteOffset": 0,
            "componentType": 5126,
            "count": 26461,
            "type": "VEC3",
            "max": [
                0.9999988079071045,
                1.0,
                1.0
            ],
            "min": [
                -1.0,
                -1.0,
                -0.9999997615814209
            ]
        },
        {
            "bufferView": 2,
            "byteOffset": 0,
            "componentType": 5126,
            "count": 26461,
            "type": "VEC2",
            "max": [
                0.9995304942131042,
                0.9995296597480774
            ],
            "min": [
                0.0004694800009019673,
                0.0004703402519226074
            ]
        },
        {
            "bufferView": 3,
            "byteOffset": 0,
            "componentType": 5125,
            "count": 74400,
            "type": "SCALAR",
            "max": [
                26460
            ],
            "min": [
                0
            ]
        }
    ],
    "buffers": [
        {
            "byteLength": 1144352,
            "uri": "shelffront_SESSION_1745518930_7589491_0.bin"
        }
    ],
    "bufferViews": [
        {
            "buffer": 0,
            "byteOffset": 0,
            "byteLength": 317532,
            "target": 34962
        },
        {
            "buffer": 0,
            "byteOffset": 317532,
            "byteLength": 317532,
            "target": 34962
        },
        {
            "buffer": 0,
            "byteOffset": 635064,
            "byteLength": 211688,
            "target": 34962
        },
        {
            "buffer": 0,
            "byteOffset": 846752,
            "byteLength": 297600,
            "target": 34963
        }
    ],
    "images": [
        {
            "uri": "textures/image_1.png"
        },
        {
            "uri": "textures/image_0.png"
        }
    ],
    "materials": [
        {
            "name": "OBJ_Material",
            "pbrMetallicRoughness": {
                "baseColorTexture": {
                    "index": 0
                },
                "metallicRoughnessTexture": {
                    "index": 1
                },
                "metallicFactor": 0.800000011920929
            },
            "doubleSided": true
        }
    ],
    "meshes": [
        {
            "name": "meshes[0]",
            "primitives": [
                {
                    "mode": 4,
                    "material": 0,
                    "indices": 3,
                    "attributes": {
                        "POSITION": 0,
                        "NORMAL": 1,
                        "TEXCOORD_0": 2
                    }
                }
            ]
        }
    ],
    "nodes": [
        {
            "name": "shelffront_SESSION_1745518930_7589491",
            "children": [
                1
            ]
        },
        {
            "name": "mesh",
            "matrix": [
                1.0,
                0.0,
                0.0,
                0.0,
                0.0,
                -1.3435885648505064e-7,
                1.0000001192092896,
                0.0,
                0.0,
                -1.0000001192092896,
                -1.3435885648505064e-7,
                0.0,
                0.0,
                0.0,
                0.0,
                1.0
            ],
            "mesh": 0,
            "extras": {
                "name": "mesh"
            }
        }
    ],
    "samplers": [
        {
            "magFilter": 9729,
            "minFilter": 9987
        },
        {
            "magFilter": 9729,
            "minFilter": 9987
        }
    ],
    "scenes": [
        {
            "nodes": [
                0
            ]
        }
    ],
    "textures": [
        {
            "source": 0,
            "sampler": 0
        },
        {
            "source": 1,
            "sampler": 1
        }
    ],
    "scene": 0
}