<svg width="66" height="16" viewBox="0 0 66 16" fill="none" xmlns="http://www.w3.org/2000/svg">
<path d="M0 0V4.10084H4.48178V16H9.41177V4.10084H13.8936V0H0ZM24.7843 10.6667C24.7843 11.8992 23.8656 12.1905 22.8571 12.1905H19.9664V9.21008H23.0588C24.2017 9.21008 24.7843 9.70308 24.7843 10.6667ZM24.2465 4.90756C24.2465 5.96078 23.619 6.22969 22.5658 6.22969H19.9664V3.80952H22.5658C23.5742 3.80952 24.2465 4.10084 24.2465 4.90756ZM28.9076 4.0112C28.9076 2.37535 28.0112 0 23.7983 0H15.0364V16H24.112C26.9132 16 29.7143 14.3417 29.7143 11.1373C29.7143 8.78432 28.3698 7.61905 26.9356 7.14846C28.1233 6.4986 28.9076 5.62465 28.9076 4.0112ZM30.6555 0V4.10084H37.6695L30.2297 12.1457V16H44.5266V11.8992H36.6611L44.1681 3.58543V0H30.6555ZM61.4301 7.61008V11.7109H57.3262C58.231 9.94808 59.6667 8.51371 61.4301 7.61008ZM65.7192 16V0H61.4301V2.79081C57.2015 4.16794 53.8855 7.48278 52.5069 11.7109H49.7192V16H65.7192Z" fill="black"/>
</svg>
